<svg width="380" height="92.402" viewBox="0 0 380 92.402" xmlns="http://www.w3.org/2000/svg"><g id="svgGroup" stroke-linecap="round" fill-rule="evenodd" font-size="9pt" stroke="#0000009b" stroke-width="0.25mm" fill="#37A48D" style="stroke:#0000009b;stroke-width:0.25mm;fill:#37A48D"><path d="M 19.8 7.301 L 19.8 30.601 L 51.2 30.601 L 51.2 7.301 Q 47.674 5.342 41.176 4.534 A 57.638 57.638 0 0 0 40.9 4.501 L 41.4 0.501 L 71 0.501 L 70.4 4.501 A 37.505 37.505 0 0 0 66.622 5.111 Q 64.781 5.513 63.264 6.082 A 15.713 15.713 0 0 0 60.7 7.301 L 60.7 61.301 Q 64.226 63.26 70.724 64.067 A 57.638 57.638 0 0 0 71 64.101 L 70.5 68.101 L 40.9 68.101 L 41.5 64.101 A 37.505 37.505 0 0 0 45.278 63.491 Q 47.119 63.089 48.636 62.519 A 15.713 15.713 0 0 0 51.2 61.301 L 51.2 36.201 L 19.8 36.201 L 19.8 61.301 Q 23.326 63.26 29.824 64.067 A 57.638 57.638 0 0 0 30.1 64.101 L 29.6 68.101 L 0 68.101 L 0.6 64.101 A 37.505 37.505 0 0 0 4.378 63.491 Q 6.219 63.089 7.736 62.519 A 15.713 15.713 0 0 0 10.3 61.301 L 10.3 7.301 Q 6.774 5.342 0.276 4.534 A 57.638 57.638 0 0 0 0 4.501 L 0.5 0.501 L 30.1 0.501 L 29.5 4.501 A 37.505 37.505 0 0 0 25.722 5.111 Q 23.881 5.513 22.364 6.082 A 15.713 15.713 0 0 0 19.8 7.301 Z M 327.4 61.001 L 327.4 41.401 L 316.9 40.601 L 316.9 36.601 L 336.7 35.101 L 336.7 63.801 Q 324.7 68.801 313.5 68.801 A 43.901 43.901 0 0 1 305.18 68.065 Q 296.162 66.322 291.1 60.451 A 25.584 25.584 0 0 1 286.472 52.234 Q 285.116 48.43 284.475 43.706 A 68.648 68.648 0 0 1 283.9 34.501 A 56.632 56.632 0 0 1 285.262 21.481 Q 289.431 3.895 306.372 0.707 A 43.983 43.983 0 0 1 314.5 0.001 Q 323.278 0.001 329.109 3.211 A 19.658 19.658 0 0 1 333.1 6.101 A 11.152 11.152 0 0 1 336.695 14.205 A 14.174 14.174 0 0 1 336.7 14.601 A 8.962 8.962 0 0 1 336.24 17.521 A 7.814 7.814 0 0 1 334.8 20.051 A 7.838 7.838 0 0 1 333.542 21.261 Q 332.163 22.301 330.6 22.301 A 7.794 7.794 0 0 1 328.249 21.957 A 6.787 6.787 0 0 1 326.55 21.151 A 5.534 5.534 0 0 1 325.095 19.789 A 5.001 5.001 0 0 1 324.3 18.101 A 12.294 12.294 0 0 0 325.649 15.599 A 9.145 9.145 0 0 0 326.3 12.251 A 4.729 4.729 0 0 0 324.836 8.831 Q 324.213 8.2 323.324 7.65 A 11.086 11.086 0 0 0 322.9 7.401 A 14.374 14.374 0 0 0 318.733 5.891 Q 316.97 5.531 314.945 5.503 A 24.865 24.865 0 0 0 314.6 5.501 A 26.213 26.213 0 0 0 308.776 6.105 Q 305.052 6.954 302.375 8.996 A 14.509 14.509 0 0 0 299.2 12.351 Q 294.5 19.201 294.5 34.501 A 83.611 83.611 0 0 0 294.814 42.026 Q 295.493 49.515 297.643 54.179 A 17.963 17.963 0 0 0 298.95 56.551 A 14.37 14.37 0 0 0 308.001 62.706 A 23.759 23.759 0 0 0 313.5 63.301 Q 320.7 63.301 327.4 61.001 Z M 98 76.701 L 100.6 68.601 L 82.9 25.401 Q 81.5 21.901 75.2 20.801 L 75.5 17.501 L 99 17.501 L 98.7 20.701 A 17.782 17.782 0 0 0 96.159 21.18 Q 94.857 21.532 93.825 22.074 A 8.026 8.026 0 0 0 92.3 23.101 L 104.8 55.901 L 115.5 23.101 Q 113.2 21.401 109.1 20.701 L 109.4 17.501 L 130.4 17.501 L 130.1 20.701 A 37.813 37.813 0 0 0 127.693 21.118 Q 123.94 21.906 122.75 23.189 A 2.112 2.112 0 0 0 122.3 23.901 L 103.6 78.001 A 51.687 51.687 0 0 1 102.026 82.032 Q 100.207 86.135 98.112 88.464 A 13.044 13.044 0 0 1 97.5 89.101 Q 94.1 92.401 89.45 92.401 Q 85.26 92.401 82.531 90.493 A 9.211 9.211 0 0 1 81.95 90.051 A 8.721 8.721 0 0 1 80.241 88.204 A 6.578 6.578 0 0 1 79.1 84.451 Q 79.1 81.201 80.6 79.601 A 5.022 5.022 0 0 1 82.377 78.352 A 4.927 4.927 0 0 1 84.25 78.001 Q 86.4 78.001 88.2 79.201 A 7.91 7.91 0 0 0 87.408 80.544 Q 86.9 81.657 86.9 82.751 A 4.961 4.961 0 0 0 87.04 83.962 A 3.493 3.493 0 0 0 87.9 85.551 A 3.148 3.148 0 0 0 89.245 86.37 Q 89.963 86.601 90.9 86.601 A 3.713 3.713 0 0 0 93.355 85.56 Q 95.6 83.598 97.584 77.938 A 53.484 53.484 0 0 0 98 76.701 Z M 140.7 84.301 L 140.7 30.701 Q 140.7 27.362 139.55 25.8 A 3.447 3.447 0 0 0 139.05 25.251 Q 137.4 23.801 133.2 23.601 L 133.5 20.401 A 22.065 22.065 0 0 0 134.634 20.152 Q 137.207 19.534 143.708 17.666 A 950.805 950.805 0 0 0 146.7 16.801 L 148.6 17.801 L 149.5 24.301 A 14.277 14.277 0 0 1 159.754 17.183 A 20.177 20.177 0 0 1 163.2 16.901 Q 182.4 16.901 182.4 41.801 Q 182.4 50.747 179.598 56.822 A 21.136 21.136 0 0 1 176.3 61.951 Q 170.2 68.901 158.7 68.901 A 23.246 23.246 0 0 1 153.294 68.237 A 29.681 29.681 0 0 1 149.9 67.201 L 149.9 84.301 A 12.996 12.996 0 0 0 152.44 85.744 Q 154.55 86.666 157.4 87.201 L 157 90.901 L 133.2 90.901 L 133.6 87.001 A 20.928 20.928 0 0 0 136.846 86.218 Q 139.038 85.488 140.7 84.301 Z M 379.5 68.101 L 349.9 68.101 L 350.5 64.101 A 37.505 37.505 0 0 0 354.278 63.491 Q 356.119 63.089 357.636 62.519 A 15.713 15.713 0 0 0 360.2 61.301 L 360.2 7.301 Q 356.674 5.342 350.176 4.534 A 57.638 57.638 0 0 0 349.9 4.501 L 350.4 0.501 L 380 0.501 L 379.4 4.501 A 37.505 37.505 0 0 0 375.622 5.111 Q 373.781 5.513 372.264 6.082 A 15.713 15.713 0 0 0 369.7 7.301 L 369.7 61.301 Q 373.226 63.26 379.724 64.067 A 57.638 57.638 0 0 0 380 64.101 L 379.5 68.101 Z M 246.3 61.501 L 246.3 30.701 Q 246.3 27.362 245.15 25.8 A 3.447 3.447 0 0 0 244.65 25.251 Q 243 23.801 238.8 23.601 L 239.1 20.401 A 22.065 22.065 0 0 0 240.234 20.152 Q 242.807 19.534 249.308 17.666 A 950.805 950.805 0 0 0 252.3 16.801 L 254.2 17.801 L 255.3 25.301 A 27.321 27.321 0 0 1 258.529 21.288 Q 260.541 19.255 262.715 18.143 A 11.893 11.893 0 0 1 268.2 16.801 A 11.082 11.082 0 0 1 272.152 17.489 A 10.155 10.155 0 0 1 274.95 19.101 A 8.064 8.064 0 0 1 276.795 21.159 A 6.934 6.934 0 0 1 277.8 24.851 Q 277.8 27.438 276.928 29.21 A 6.353 6.353 0 0 1 276.25 30.301 A 5.757 5.757 0 0 1 275.046 31.48 A 4.371 4.371 0 0 1 272.45 32.301 Q 270.2 32.301 268.6 31.401 A 4.898 4.898 0 0 1 267.57 30.643 A 3.537 3.537 0 0 1 266.6 29.001 A 3.648 3.648 0 0 0 267.582 27.162 A 5.389 5.389 0 0 0 267.7 26.001 A 5.083 5.083 0 0 0 267.554 24.725 Q 267.129 23.091 265.466 22.776 A 4.658 4.658 0 0 0 264.6 22.701 A 4.772 4.772 0 0 0 262.074 23.475 Q 260.27 24.588 258.5 27.301 A 18.43 18.43 0 0 0 255.976 33.016 A 16.755 16.755 0 0 0 255.5 37.001 L 255.5 61.501 Q 257.65 62.934 261.085 63.803 A 34.916 34.916 0 0 0 264 64.401 L 263.6 68.101 L 238.8 68.101 L 239.2 64.201 A 20.928 20.928 0 0 0 242.446 63.418 Q 244.638 62.688 246.3 61.501 Z M 229.6 42.001 L 200.6 42.001 L 200.6 43.601 Q 200.6 52.635 202.352 57.37 A 11.147 11.147 0 0 0 203.9 60.301 A 9.56 9.56 0 0 0 208.472 63.48 Q 210.855 64.301 214.05 64.301 A 14.921 14.921 0 0 0 224.982 59.621 A 20.829 20.829 0 0 0 226.1 58.401 L 229.5 61.801 Q 223.4 68.901 213.1 68.901 A 34.33 34.33 0 0 1 206.844 68.371 Q 199.552 67.016 195.85 62.201 Q 191.885 57.043 190.973 48.446 A 51.664 51.664 0 0 1 190.7 43.001 A 44.844 44.844 0 0 1 191.289 35.489 Q 191.978 31.441 193.473 28.206 A 21.236 21.236 0 0 1 196.3 23.651 A 18.127 18.127 0 0 1 207.222 17.284 A 27.4 27.4 0 0 1 212.5 16.801 A 31.504 31.504 0 0 1 217.68 17.196 Q 224.216 18.288 227.3 22.401 Q 231.5 28.001 231.8 39.101 L 229.6 42.001 Z M 149.9 41.901 L 149.9 62.201 Q 153.5 64.301 159.5 64.301 A 10.462 10.462 0 0 0 167.732 60.406 A 16.459 16.459 0 0 0 169.2 58.401 Q 171.933 54.044 172.647 47.15 A 50.52 50.52 0 0 0 172.9 41.951 A 68.358 68.358 0 0 0 172.706 36.6 Q 172.292 31.358 171.001 28.007 A 14.784 14.784 0 0 0 170.3 26.451 A 9.997 9.997 0 0 0 168.128 23.595 Q 165.777 21.501 162.2 21.501 Q 149.9 21.501 149.9 41.901 Z M 200.6 38.001 L 222.1 37.201 A 53.621 53.621 0 0 0 221.952 33.063 Q 221.638 29.027 220.661 26.445 A 11.14 11.14 0 0 0 220 25.001 Q 217.962 21.312 212.625 21.204 A 16.058 16.058 0 0 0 212.3 21.201 A 10.701 10.701 0 0 0 206.259 22.841 Q 200.806 26.451 200.6 38.001 Z"/></g></svg>