<svg width="356.3" height="94.4" viewBox="0 0 356.3 94.4" xmlns="http://www.w3.org/2000/svg"><g id="svgGroup" stroke-linecap="round" fill-rule="evenodd" font-size="9pt" stroke="#37a48d" stroke-width="0.25mm" fill="#37A48D" style="stroke:#37a48d;stroke-width:0.25mm;fill:#37A48D"><path d="M 328.6 5.7 L 325.1 13.6 Q 320.9 11.3 316.55 9.8 A 27.36 27.36 0 0 0 310.451 8.48 A 34.225 34.225 0 0 0 306.9 8.3 A 20.13 20.13 0 0 0 299.413 9.671 A 18.919 18.919 0 0 0 295.7 11.65 A 20.295 20.295 0 0 0 290.376 17.068 A 27.457 27.457 0 0 0 287.95 21.5 A 31.614 31.614 0 0 0 285.904 28.231 Q 285.301 31.363 285.15 34.955 A 58.311 58.311 0 0 0 285.1 37.4 Q 285.1 44.709 287.068 50.163 A 26.036 26.036 0 0 0 287.7 51.75 A 24.18 24.18 0 0 0 290.632 56.797 A 19.102 19.102 0 0 0 294.9 60.9 A 17.93 17.93 0 0 0 304.709 64.086 A 21.993 21.993 0 0 0 305.5 64.1 A 22.762 22.762 0 0 0 311.097 63.437 A 18.835 18.835 0 0 0 315.45 61.75 A 40.361 40.361 0 0 0 318.452 59.967 Q 320.738 58.463 322.3 56.9 L 322.3 41.6 L 307.8 41.6 L 307.8 34.1 L 331.3 34.1 L 331.3 71.2 L 322.9 71.2 L 322.9 64.2 A 35.883 35.883 0 0 1 318.522 67.492 A 47.354 47.354 0 0 1 314.4 69.85 A 23.594 23.594 0 0 1 304.994 72.35 A 28.131 28.131 0 0 1 303.3 72.4 A 26.572 26.572 0 0 1 293.987 70.8 A 24.511 24.511 0 0 1 288.9 68.2 Q 282.6 64 279 56.25 A 37.529 37.529 0 0 1 276.092 46.68 A 51.837 51.837 0 0 1 275.4 38 A 56.301 56.301 0 0 1 276.235 28.083 A 42.572 42.572 0 0 1 279.2 18.25 A 32.73 32.73 0 0 1 284.984 9.302 A 29.455 29.455 0 0 1 290.15 4.85 Q 297.3 0 307.4 0 Q 313.9 0 319 1.6 Q 324.1 3.2 328.6 5.7 Z M 9.5 71.2 L 0 71.2 L 0 1.2 L 9.5 1.2 L 9.5 31.1 L 44 31.1 L 44 1.2 L 53.5 1.2 L 53.5 71.2 L 44 71.2 L 44 39.3 L 9.5 39.3 L 9.5 71.2 Z M 63 92.4 L 65 84.9 A 9.908 9.908 0 0 0 66.165 85.474 Q 66.988 85.819 68 86.1 A 13.514 13.514 0 0 0 70.279 86.518 A 17.358 17.358 0 0 0 72 86.6 Q 76.2 86.6 79.5 83.9 A 12.003 12.003 0 0 0 81.433 81.839 Q 83.181 79.528 84.841 75.676 A 58.58 58.58 0 0 0 85.8 73.3 L 88.1 67.3 L 83.3 67.3 L 63 21.6 L 71 18 L 90.4 61.3 L 105.5 18.4 L 113.8 21.6 L 94.7 73.8 A 71.728 71.728 0 0 1 92.647 78.887 Q 91.545 81.326 90.378 83.314 A 30.86 30.86 0 0 1 88.4 86.3 A 24.268 24.268 0 0 1 85.522 89.511 Q 83.608 91.279 81.505 92.318 A 14.737 14.737 0 0 1 80.9 92.6 Q 76.8 94.4 71.8 94.4 Q 68.8 94.4 66.55 93.8 Q 64.3 93.2 63 92.4 Z M 133.7 93.2 L 124.7 93.2 L 124.7 32.5 A 11.015 11.015 0 0 0 124.573 30.764 Q 124.242 28.698 123.05 27.65 A 5.718 5.718 0 0 0 120.26 26.328 A 7.991 7.991 0 0 0 118.8 26.2 L 120.7 19.2 Q 126.562 19.2 129.622 22.164 A 10.15 10.15 0 0 1 132.2 26.5 Q 133.155 25.067 135.252 23.178 A 38.58 38.58 0 0 1 135.45 23 A 18.902 18.902 0 0 1 138.151 21.016 A 25.569 25.569 0 0 1 141.05 19.5 A 16.955 16.955 0 0 1 145.609 18.211 A 21.886 21.886 0 0 1 148.7 18 Q 154.7 18 159.95 21.15 A 22.329 22.329 0 0 1 167.128 28.117 A 27.464 27.464 0 0 1 168.4 30.25 Q 171.6 36.2 171.6 44.7 Q 171.6 53 168.4 59.25 A 27.846 27.846 0 0 1 164.466 65.082 A 23.029 23.029 0 0 1 160.05 68.95 Q 154.9 72.4 148.9 72.4 Q 144.3 72.4 140.3 70.55 A 30.352 30.352 0 0 1 136.884 68.711 Q 135.091 67.585 133.7 66.3 L 133.7 93.2 Z M 226.2 48.9 L 189.8 48.9 A 24.088 24.088 0 0 0 190.939 53.925 Q 192.275 57.738 194.9 60.3 Q 199.1 64.4 206 64.4 Q 210.5 64.4 214.1 63.45 Q 217.7 62.5 221 61 L 223.1 68.7 A 40.77 40.77 0 0 1 218.765 70.326 A 51.863 51.863 0 0 1 215 71.35 A 38.914 38.914 0 0 1 209.908 72.17 A 52.025 52.025 0 0 1 204.9 72.4 A 28.318 28.318 0 0 1 197.154 71.395 A 21.108 21.108 0 0 1 187.15 65.25 A 23.521 23.521 0 0 1 181.945 55.71 Q 180.6 51.046 180.6 45.2 A 35.359 35.359 0 0 1 181.433 37.378 A 28.84 28.84 0 0 1 183.55 31.25 A 24.642 24.642 0 0 1 188.566 24.168 A 22.887 22.887 0 0 1 191.8 21.55 A 21.048 21.048 0 0 1 202.059 18.078 A 26.205 26.205 0 0 1 204.1 18 Q 211.6 18 216.55 21.25 Q 221.5 24.5 224 30 A 28.185 28.185 0 0 1 226.426 39.864 A 33.434 33.434 0 0 1 226.5 42.1 A 75.204 75.204 0 0 1 226.209 48.797 A 69.426 69.426 0 0 1 226.2 48.9 Z M 247.5 71.2 L 238.5 71.2 L 238.5 19.2 L 247.2 19.2 L 247.2 30.5 Q 248.5 27.2 250.7 24.35 Q 252.9 21.5 256.2 19.75 A 14.817 14.817 0 0 1 260.88 18.226 A 19.459 19.459 0 0 1 263.9 18 Q 265.4 18 266.9 18.15 A 18.972 18.972 0 0 1 267.955 18.284 Q 268.455 18.362 268.882 18.463 A 8.817 8.817 0 0 1 269.4 18.6 L 266.7 27.9 A 9.763 9.763 0 0 0 264.555 27.288 Q 263.459 27.1 262.2 27.1 A 12.958 12.958 0 0 0 255.57 28.946 A 15.609 15.609 0 0 0 255.15 29.2 Q 251.822 31.286 249.678 35.642 A 22.927 22.927 0 0 0 249.65 35.7 Q 247.887 39.307 247.57 44.528 A 39.09 39.09 0 0 0 247.5 46.9 L 247.5 71.2 Z M 356.3 71.2 L 346.8 71.2 L 346.8 1.2 L 356.3 1.2 L 356.3 71.2 Z M 133.7 32.6 L 133.7 58.2 Q 136.3 60.9 139.7 62.65 Q 143.1 64.4 147.1 64.4 Q 153.794 64.4 158.017 59.216 A 17.38 17.38 0 0 0 158.15 59.05 A 18.792 18.792 0 0 0 161.644 51.745 Q 162.305 49.055 162.388 45.909 A 34.555 34.555 0 0 0 162.4 45 Q 162.4 39 160.25 34.7 Q 158.1 30.4 154.55 28.1 Q 151 25.8 146.7 25.8 A 14.741 14.741 0 0 0 141.073 26.863 A 14.054 14.054 0 0 0 138.95 27.95 Q 135.5 30.1 133.7 32.6 Z M 189.7 41.6 L 218.2 41.6 A 24.355 24.355 0 0 0 217.796 37.015 Q 217.3 34.431 216.196 32.407 A 12.422 12.422 0 0 0 214.4 29.9 A 12.488 12.488 0 0 0 207.439 26.125 A 18.395 18.395 0 0 0 203.9 25.8 A 13.58 13.58 0 0 0 198.788 26.735 A 12.524 12.524 0 0 0 194.3 29.85 Q 190.5 33.9 189.7 41.6 Z" vector-effect="non-scaling-stroke"/></g></svg>